<svg width="18" height="18" viewBox="0 0 18 18" fill="none" xmlns="http://www.w3.org/2000/svg">
<g clip-path="url(#clip0)">
<path fill-rule="evenodd" clip-rule="evenodd" d="M7.50001 -0.249993L7.45807 -0.250004C7.26776 -0.25008 7.10416 -0.250146 6.95594 -0.235546C5.53162 -0.0952562 4.40474 1.03162 4.26445 2.45594C4.24985 2.60416 4.24992 2.76775 4.24999 2.95805V2.95807L4.25 3.00002H6.25C6.25 2.74404 6.25122 2.68855 6.25482 2.65198C6.30158 2.17721 6.67721 1.80159 7.15198 1.75482C7.18855 1.75122 7.24404 1.75001 7.50001 1.75001H14.05C14.6266 1.75001 14.9988 1.75078 15.2822 1.77393C15.5538 1.79613 15.6545 1.83381 15.704 1.859C15.8922 1.95487 16.0451 2.10785 16.141 2.29602C16.1662 2.34546 16.2039 2.44618 16.2261 2.71784C16.2492 3.00118 16.25 3.37345 16.25 3.95001V10.5C16.25 10.756 16.2488 10.8115 16.2452 10.848C16.1984 11.3228 15.8228 11.6984 15.348 11.7452C15.3115 11.7488 15.256 11.75 15 11.75V13.75L15.042 13.75H15.042C15.2323 13.7501 15.3958 13.7502 15.5441 13.7356C16.9684 13.5953 18.0953 12.4684 18.2356 11.0441C18.2502 10.8959 18.2501 10.7323 18.25 10.5421V10.542L18.25 10.5V3.95001V3.91148V3.91136C18.25 3.38426 18.25 2.92953 18.2194 2.55498C18.1871 2.15963 18.1158 1.76641 17.923 1.38804C17.6354 0.823549 17.1765 0.364607 16.612 0.0769871C16.2336 -0.115807 15.8404 -0.187123 15.445 -0.219424C15.0705 -0.250028 14.6157 -0.250012 14.0885 -0.249994L14.05 -0.249993H7.50001ZM3.95 4.25002L3.91146 4.25002C3.38431 4.25 2.92955 4.24999 2.55497 4.28059C2.15963 4.31289 1.76641 4.38421 1.38803 4.577C0.823545 4.86462 0.364603 5.32356 0.0769831 5.88805C-0.115811 6.26643 -0.187127 6.65965 -0.219428 7.05499C-0.250031 7.42956 -0.250016 7.88431 -0.249999 8.41144V8.41148V8.45002V14.05V14.0886V14.0886C-0.250016 14.6157 -0.250031 15.0705 -0.219428 15.4451C-0.187127 15.8404 -0.115811 16.2336 0.0769831 16.612C0.364603 17.1765 0.823545 17.6354 1.38803 17.923C1.76641 18.1158 2.15963 18.1872 2.55497 18.2195C2.92951 18.2501 3.38423 18.25 3.91131 18.25H3.91144H3.95H9.55H9.58857H9.58869C10.1158 18.25 10.5705 18.2501 10.945 18.2195C11.3404 18.1872 11.7336 18.1158 12.112 17.923C12.6765 17.6354 13.1354 17.1765 13.423 16.612C13.6158 16.2336 13.6871 15.8404 13.7194 15.4451C13.75 15.0705 13.75 14.6157 13.75 14.0886V14.0886V14.05V8.45002V8.41146V8.41143C13.75 7.8843 13.75 7.42955 13.7194 7.05499C13.6871 6.65965 13.6158 6.26643 13.423 5.88805C13.1354 5.32356 12.6765 4.86462 12.112 4.577C11.7336 4.38421 11.3404 4.31289 10.945 4.28059C10.5705 4.24999 10.1157 4.25 9.58855 4.25002L9.55 4.25002H3.95ZM2.29601 6.35902C2.34546 6.33382 2.44618 6.29615 2.71784 6.27395C3.00118 6.2508 3.37345 6.25002 3.95 6.25002H9.55C10.1266 6.25002 10.4988 6.2508 10.7822 6.27395C11.0538 6.29615 11.1545 6.33382 11.204 6.35902C11.3922 6.45489 11.5451 6.60787 11.641 6.79603C11.6662 6.84548 11.7039 6.94619 11.7261 7.21786C11.7492 7.50119 11.75 7.87347 11.75 8.45002V14.05C11.75 14.6266 11.7492 14.9988 11.7261 15.2822C11.7039 15.5538 11.6662 15.6546 11.641 15.704C11.5451 15.8922 11.3922 16.0452 11.204 16.141C11.1545 16.1662 11.0538 16.2039 10.7822 16.2261C10.4988 16.2492 10.1266 16.25 9.55 16.25H3.95C3.37345 16.25 3.00118 16.2492 2.71784 16.2261C2.44618 16.2039 2.34546 16.1662 2.29601 16.141C2.10785 16.0452 1.95487 15.8922 1.859 15.704C1.8338 15.6546 1.79613 15.5538 1.77393 15.2822C1.75078 14.9988 1.75 14.6266 1.75 14.05V8.45002C1.75 7.87347 1.75078 7.50119 1.77393 7.21786C1.79613 6.94619 1.8338 6.84548 1.859 6.79603C1.95487 6.60787 2.10785 6.45489 2.29601 6.35902Z" fill="white"/>
</g>
<defs>
<clipPath id="clip0">
<rect width="18" height="18" fill="white"/>
</clipPath>
</defs>
</svg>
